<svg>
    <symbol id="pattern" width="1073" height="317" viewBox="0 0 1073 317" fill="none" xmlns="http://www.w3.org/2000/svg">
        <path d="M120 -49.5C120 200.1 120 298.833 120 317" stroke="url(#paint0_linear_1_45)" stroke-opacity="0.07" stroke-width="2"/>
        <path d="M358 -49.5C358 200.1 358 298.833 358 317" stroke="url(#paint1_linear_1_45)" stroke-opacity="0.07" stroke-width="2"/>
        <path d="M596 -49.5C596 200.1 596 298.833 596 317" stroke="url(#paint2_linear_1_45)" stroke-opacity="0.07" stroke-width="2"/>
        <path d="M834 -49.5C834 200.1 834 298.833 834 317" stroke="url(#paint3_linear_1_45)" stroke-opacity="0.07" stroke-width="2"/>
        <path d="M1072 -49.5C1072 200.1 1072 298.833 1072 317" stroke="url(#paint4_linear_1_45)" stroke-opacity="0.07" stroke-width="2"/>
        <path d="M1 -49.5C1 200.1 1 298.833 1 317" stroke="url(#paint5_linear_1_45)" stroke-opacity="0.07" stroke-width="2"/>
        <path d="M239 -49.5C239 200.1 239 298.833 239 317" stroke="url(#paint6_linear_1_45)" stroke-opacity="0.07" stroke-width="2"/>
        <path d="M477 -49.5C477 200.1 477 298.833 477 317" stroke="url(#paint7_linear_1_45)" stroke-opacity="0.07" stroke-width="2"/>
        <path d="M715 -49.5C715 200.1 715 298.833 715 317" stroke="url(#paint8_linear_1_45)" stroke-opacity="0.07" stroke-width="2"/>
        <path d="M953 -49.5C953 200.1 953 298.833 953 317" stroke="url(#paint9_linear_1_45)" stroke-opacity="0.07" stroke-width="2"/>
        <defs>
        <linearGradient id="paint0_linear_1_45" x1="120.5" y1="-49.5" x2="120.5" y2="317" gradientUnits="userSpaceOnUse">
        <stop stop-color="white"/>
        <stop offset="1" stop-color="white" stop-opacity="0"/>
        </linearGradient>
        <linearGradient id="paint1_linear_1_45" x1="358.5" y1="-49.5" x2="358.5" y2="317" gradientUnits="userSpaceOnUse">
        <stop stop-color="white"/>
        <stop offset="1" stop-color="white" stop-opacity="0"/>
        </linearGradient>
        <linearGradient id="paint2_linear_1_45" x1="596.5" y1="-49.5" x2="596.5" y2="317" gradientUnits="userSpaceOnUse">
        <stop stop-color="white"/>
        <stop offset="1" stop-color="white" stop-opacity="0"/>
        </linearGradient>
        <linearGradient id="paint3_linear_1_45" x1="834.5" y1="-49.5" x2="834.5" y2="317" gradientUnits="userSpaceOnUse">
        <stop stop-color="white"/>
        <stop offset="1" stop-color="white" stop-opacity="0"/>
        </linearGradient>
        <linearGradient id="paint4_linear_1_45" x1="1072.5" y1="-49.5" x2="1072.5" y2="317" gradientUnits="userSpaceOnUse">
        <stop stop-color="white"/>
        <stop offset="1" stop-color="white" stop-opacity="0"/>
        </linearGradient>
        <linearGradient id="paint5_linear_1_45" x1="1.5" y1="-49.5" x2="1.5" y2="317" gradientUnits="userSpaceOnUse">
        <stop stop-color="white"/>
        <stop offset="1" stop-color="white" stop-opacity="0"/>
        </linearGradient>
        <linearGradient id="paint6_linear_1_45" x1="239.5" y1="-49.5" x2="239.5" y2="317" gradientUnits="userSpaceOnUse">
        <stop stop-color="white"/>
        <stop offset="1" stop-color="white" stop-opacity="0"/>
        </linearGradient>
        <linearGradient id="paint7_linear_1_45" x1="477.5" y1="-49.5" x2="477.5" y2="317" gradientUnits="userSpaceOnUse">
        <stop stop-color="white"/>
        <stop offset="1" stop-color="white" stop-opacity="0"/>
        </linearGradient>
        <linearGradient id="paint8_linear_1_45" x1="715.5" y1="-49.5" x2="715.5" y2="317" gradientUnits="userSpaceOnUse">
        <stop stop-color="white"/>
        <stop offset="1" stop-color="white" stop-opacity="0"/>
        </linearGradient>
        <linearGradient id="paint9_linear_1_45" x1="953.5" y1="-49.5" x2="953.5" y2="317" gradientUnits="userSpaceOnUse">
        <stop stop-color="white"/>
        <stop offset="1" stop-color="white" stop-opacity="0"/>
        </linearGradient>
        </defs>
    </symbol>
</svg>